<?xml version="1.0" standalone="no"?>
<!DOCTYPE svg PUBLIC "-//W3C//DTD SVG 20010904//EN"
 "http://www.w3.org/TR/2001/REC-SVG-20010904/DTD/svg10.dtd">
<svg version="1.0" xmlns="http://www.w3.org/2000/svg"
 width="520.000000pt" height="520.000000pt" viewBox="0 0 520.000000 520.000000"
 preserveAspectRatio="xMidYMid meet">
<metadata>
Created by potrace 1.11, written by Peter Selinger 2001-2013
</metadata>
<g transform="translate(0.000000,520.000000) scale(0.100000,-0.100000)"
fill="#000000" stroke="none">
<path d="M2589 4793 c-75 -19 -166 -93 -205 -165 -15 -28 -32 -132 -28 -165
10 -74 17 -100 39 -143 40 -78 109 -130 224 -166 12 -4 13 -43 7 -237 -4 -127
-9 -257 -11 -287 -2 -30 -7 -95 -10 -145 -9 -139 -15 -182 -41 -298 -63 -284
-186 -426 -434 -500 -107 -32 -160 -42 -160 -30 0 5 24 26 53 46 96 67 135
136 144 253 9 111 -15 173 -94 251 -74 74 -131 95 -242 92 -90 -3 -194 -49
-240 -108 -57 -72 -71 -116 -67 -216 3 -115 29 -178 97 -239 48 -43 125 -86
154 -86 8 0 15 -4 15 -10 0 -16 -71 -28 -180 -30 -58 -1 -150 -3 -205 -5 -213
-7 -583 -8 -593 -1 -6 3 -14 27 -18 53 -10 65 -64 126 -160 183 -48 28 -59 30
-150 30 -80 0 -106 -4 -143 -22 -61 -29 -137 -107 -163 -165 -26 -59 -27 -171
-2 -249 28 -91 122 -178 219 -205 l35 -10 1 -127 c2 -284 15 -514 34 -627 39
-221 140 -377 300 -462 124 -65 369 -134 672 -188 51 -9 96 -22 101 -28 5 -7
15 -41 22 -77 20 -106 68 -175 158 -227 54 -31 63 -32 157 -33 89 0 106 3 150
26 28 15 64 40 82 56 44 43 93 138 100 198 5 42 9 50 27 51 56 2 392 45 519
67 58 10 113 18 124 17 10 -1 43 -5 73 -8 85 -10 143 -15 295 -27 77 -6 156
-13 175 -15 19 -2 91 -7 160 -11 69 -3 145 -7 170 -9 25 -2 135 -6 245 -10
110 -4 214 -9 230 -10 17 -2 53 -3 81 -4 l51 -1 7 -41 c16 -99 97 -202 193
-246 49 -23 64 -25 146 -21 80 5 100 9 149 37 130 73 189 221 152 380 -16 67
-23 79 -71 127 -82 80 -138 104 -243 104 -76 0 -94 -4 -147 -30 -33 -16 -79
-50 -102 -75 -48 -51 -52 -50 -113 10 -40 41 -79 115 -102 197 -20 70 -24 92
-31 196 -3 48 -8 116 -11 152 -2 36 -7 221 -11 411 l-6 346 43 7 c50 8 123 48
162 91 41 43 78 130 87 203 11 91 -16 167 -86 243 -85 92 -166 118 -304 99
-74 -10 -119 -33 -170 -83 -55 -55 -77 -102 -90 -190 -9 -62 -8 -84 5 -128 32
-112 96 -181 211 -230 l57 -24 -7 -110 c-11 -190 -24 -254 -63 -327 -46 -87
-150 -132 -333 -145 l-97 -6 -7 42 c-5 33 -20 57 -67 106 -83 89 -126 108
-247 109 -92 1 -99 -1 -155 -33 -59 -35 -141 -125 -152 -169 -8 -31 -21 -28
-62 15 -86 92 -125 270 -157 728 -6 86 -13 617 -16 1250 l-3 390 42 7 c89 15
171 80 220 173 23 43 27 63 27 135 0 127 -9 155 -68 217 -28 30 -70 66 -92 78
-62 37 -174 49 -256 28z m42 -1750 c0 -5 2 -16 4 -27 2 -10 6 -95 9 -190 16
-456 30 -643 62 -809 21 -108 46 -175 88 -241 20 -31 36 -59 36 -62 0 -6 -623
-2 -790 6 l-115 5 -6 40 c-4 22 -10 74 -14 115 -4 41 -9 89 -11 105 -6 49 -18
332 -18 449 l-1 110 133 27 c217 45 348 107 454 216 50 51 133 186 143 234 6
26 24 41 26 22z m-843 -915 l2 -407 -32 4 c-18 2 -105 6 -193 10 -88 3 -182 8
-210 10 -27 2 -88 6 -135 10 -47 3 -125 13 -175 21 -318 54 -447 130 -494 292
-36 124 -36 162 3 162 39 0 129 50 171 94 29 31 49 66 65 115 l25 71 120 1
c66 0 165 2 220 4 387 11 530 17 533 19 1 2 24 3 50 2 l47 -1 3 -407z m-1210
-264 c120 -98 286 -154 532 -179 36 -4 72 -8 80 -10 8 -1 55 -6 103 -10 49 -4
100 -8 115 -10 15 -2 90 -6 167 -10 77 -4 151 -8 165 -10 14 -1 31 -3 38 -4 9
-1 12 -62 12 -269 l0 -269 -52 -24 c-59 -27 -138 -103 -163 -155 -14 -30 -20
-34 -43 -30 -15 3 -67 12 -117 21 -248 41 -500 111 -600 165 -122 65 -152 100
-235 270 -8 17 -18 59 -25 105 -36 259 -54 465 -41 465 4 0 33 -21 64 -46z
m3516 -239 c25 -441 84 -625 229 -720 38 -25 20 -33 -56 -24 -34 4 -96 10
-137 14 -41 3 -88 8 -105 10 -16 2 -53 6 -80 9 -118 13 -294 48 -379 77 -103
34 -153 64 -189 111 -31 40 -67 145 -67 191 0 32 2 35 41 41 84 13 185 103
219 194 11 29 20 61 20 72 0 23 13 27 110 35 152 14 290 66 353 133 l22 23 6
-23 c3 -13 9 -77 13 -143z m-1458 -4 l290 -1 13 -49 c20 -79 74 -155 143 -200
33 -23 68 -41 78 -41 36 0 43 -24 25 -91 -32 -127 -78 -185 -182 -231 -110
-49 -145 -51 -298 -21 -357 69 -577 206 -678 421 -41 88 -77 186 -77 209 0 12
33 13 198 9 108 -2 328 -5 488 -5z m-694 -250 c55 -116 150 -224 257 -295 74
-49 227 -117 304 -137 42 -10 72 -28 50 -30 -4 0 -64 -8 -133 -18 -69 -10
-145 -17 -169 -17 -43 1 -46 3 -77 57 -53 89 -165 168 -241 169 -22 0 -36 6
-43 19 -11 22 -14 351 -2 351 4 -1 28 -45 54 -99z m1328 -266 c0 -23 101 -120
163 -155 31 -17 60 -36 63 -41 7 -12 -87 -11 -245 1 -127 10 -161 16 -161 28
0 4 20 23 44 42 25 19 59 58 78 87 32 51 58 68 58 38z"/>
</g>
</svg>
